<svg width="50" height="51" viewBox="0 0 50 51" fill="none" xmlns="http://www.w3.org/2000/svg">
<path d="M24.6478 0.622559C11.035 0.622559 0 11.697 0 25.3584C0 39.0198 11.035 50.0943 24.6478 50.0943C38.2605 50.0943 49.2955 39.0198 49.2955 25.3584C49.2955 11.697 38.2605 0.622559 24.6478 0.622559ZM30.4862 17.7161H26.7813C26.3423 17.7161 25.8545 18.2958 25.8545 19.0662V21.7511H30.4888L29.7878 25.58H25.8545V37.0744H21.4821V25.58H17.5153V21.7511H21.4821V19.4991C21.4821 16.268 23.7158 13.6424 26.7813 13.6424H30.4862V17.7161Z" fill="url(#paint0_linear_1717_1398)"/>
<defs>
<linearGradient id="paint0_linear_1717_1398" x1="0" y1="0.622559" x2="49.2955" y2="0.622558" gradientUnits="userSpaceOnUse">
<stop stop-color="#FFA280"/>
<stop offset="1" stop-color="#8FD9D9"/>
</linearGradient>
</defs>
</svg>
