<svg width="50" height="51" viewBox="0 0 50 51" fill="none" xmlns="http://www.w3.org/2000/svg">
<path d="M25.3044 0.622559C11.6916 0.622559 0.656616 11.697 0.656616 25.3584C0.656616 39.0198 11.6916 50.0943 25.3044 50.0943C38.9171 50.0943 49.9521 39.0198 49.9521 25.3584C49.9521 11.697 38.9171 0.622559 25.3044 0.622559ZM19.2708 35.6109H14.2796V19.4914H19.2708V35.6109ZM16.7444 17.5125C15.168 17.5125 14.1487 16.3917 14.1487 15.0054C14.1487 13.5908 15.1988 12.5035 16.8086 12.5035C18.4184 12.5035 19.4043 13.5908 19.4351 15.0054C19.4351 16.3917 18.4184 17.5125 16.7444 17.5125ZM37.4999 35.6109H32.5087V26.6777C32.5087 24.5983 31.7847 23.1863 29.9797 23.1863C28.601 23.1863 27.782 24.1422 27.42 25.0621C27.2865 25.3893 27.2531 25.8531 27.2531 26.3143V35.6083H22.2594V24.6318C22.2594 22.6194 22.1952 20.9369 22.1284 19.4888H26.4649L26.6934 21.7279H26.7935C27.4508 20.6766 29.0606 19.1255 31.7539 19.1255C35.0377 19.1255 37.4999 21.3337 37.4999 26.0799V35.6109Z" fill="url(#paint0_linear_1717_1397)"/>
<defs>
<linearGradient id="paint0_linear_1717_1397" x1="0.656616" y1="0.622559" x2="49.9521" y2="0.622558" gradientUnits="userSpaceOnUse">
<stop stop-color="#FFA280"/>
<stop offset="1" stop-color="#8FD9D9"/>
</linearGradient>
</defs>
</svg>
